# xmcd CD database file
#
# Track frame offsets:
#	150
#	15255
#	30737
#	47109
#	61863
#	73667
#	91342
#	108202
#	126063
#	139574
#	159804
#	177072
#	192199
#
# Disc length: 2789 seconds
#
# Revision: 0
# Processed by: cddbd v1.5.2PL0 Copyright (c) Steve Scherf et al.
# Submitted via: cdripper 1.0.8
#
DISCID=990ae30d
DTITLE=Sérgio Reis - 2009 - 50 Anos Cantando o Brasil - CD 1 - CD 1
DYEAR=2009
DGENRE=Country
TTITLE0=O Menino da Porteira
TTITLE1=Tristeza do Jeca
TTITLE2=Chico Mineiro
TTITLE3=Panela Velha
TTITLE4=Fio de Cabelo
TTITLE5=Disparada - Sérgio Reis and Filhos
TTITLE6=Couro de Boi
TTITLE7=Bicho do Mato
TTITLE8=De papo pro ar
TTITLE9=Piinga ne mim
TTITLE10=Romaria
TTITLE11=O Lobo da Estrada
TTITLE12=É disso que o Velho gosta
EXTD=YEAR: 2009
EXTT0=
EXTT1=
EXTT2=
EXTT3=
EXTT4=
EXTT5=
EXTT6=
EXTT7=
EXTT8=
EXTT9=
EXTT10=
EXTT11=
EXTT12=
PLAYORDER=
